<?xml version="1.0" standalone="no"?>
<!DOCTYPE svg PUBLIC "-//W3C//DTD SVG 20010904//EN"
 "http://www.w3.org/TR/2001/REC-SVG-20010904/DTD/svg10.dtd">
<svg version="1.0" xmlns="http://www.w3.org/2000/svg"
 width="566.000000pt" height="441.000000pt" viewBox="0 0 566.000000 441.000000"
 preserveAspectRatio="xMidYMid meet">

<g transform="translate(0.000000,441.000000) scale(0.100000,-0.100000)"
fill="#000000" stroke="none">
<path d="M2675 3491 c-400 -88 -674 -485 -604 -877 66 -374 357 -637 734 -661
198 -12 391 58 568 207 33 27 124 144 151 194 161 292 110 680 -122 919 -53
54 -96 63 -132 27 -33 -33 -25 -63 34 -130 70 -81 121 -169 148 -255 32 -100
32 -271 -1 -370 -22 -70 -97 -206 -116 -212 -6 -2 -23 25 -38 59 -45 104 -150
199 -263 239 -67 24 -96 24 -125 1 -31 -26 -31 -78 0 -104 13 -10 30 -18 38
-18 26 0 119 -49 151 -80 41 -39 75 -94 90 -146 22 -77 20 -81 -70 -124 -101
-46 -163 -60 -271 -60 -104 0 -195 20 -280 60 -62 29 -183 117 -174 126 2 2
28 8 58 14 159 30 335 165 404 313 20 41 45 110 56 153 22 89 50 150 91 197
l28 32 41 -45 c64 -69 82 -119 84 -227 1 -110 16 -136 73 -131 56 5 75 39 74
135 -1 187 -97 338 -269 420 -196 94 -454 24 -572 -154 -34 -51 -39 -87 -15
-121 l15 -22 -80 0 c-105 0 -111 -8 -111 -143 0 -145 -10 -137 183 -137 114 0
167 4 175 12 8 8 12 51 12 130 0 130 -4 138 -69 138 -17 0 -31 5 -31 10 0 6 4
10 9 10 5 0 13 9 16 21 12 37 105 118 162 139 47 18 153 28 153 15 0 -2 -15
-28 -33 -57 -41 -65 -51 -91 -77 -191 -37 -148 -109 -245 -227 -309 -61 -34
-152 -58 -215 -58 -47 0 -48 1 -67 43 -42 91 -53 151 -49 285 3 113 7 135 32
197 56 136 130 230 238 301 112 75 241 114 373 114 76 0 105 18 105 65 0 55
-36 75 -129 74 -42 0 -112 -8 -156 -18z"/>
<path d="M3034 3452 c-18 -12 -38 -37 -48 -62 -51 -129 109 -234 211 -138 51
48 50 139 -2 188 -35 33 -118 39 -161 12z"/>
<path d="M2191 1680 c-10 -5 -12 -27 -9 -78 4 -77 22 -108 81 -138 23 -12 27
-21 27 -58 0 -51 21 -76 45 -56 10 8 15 30 15 61 0 43 3 49 24 55 13 3 36 18
51 34 23 24 28 40 32 97 4 55 2 71 -11 82 -26 21 -46 -3 -46 -56 0 -24 -7 -57
-15 -73 -14 -27 -20 -30 -65 -30 -62 0 -80 22 -80 97 0 55 -20 81 -49 63z"/>
<path d="M2871 1676 c-8 -9 -11 -62 -9 -166 3 -135 5 -154 21 -164 15 -9 21
-7 33 8 21 30 20 298 -2 320 -19 20 -28 20 -43 2z"/>
<path d="M3917 1678 c-15 -8 -17 -29 -17 -162 0 -124 3 -156 15 -166 30 -25
44 -4 47 67 l3 68 73 3 72 3 0 -60 c0 -41 5 -65 16 -75 8 -9 17 -16 19 -16 2
0 11 7 19 16 13 13 16 42 16 159 0 117 -3 146 -16 159 -8 9 -17 16 -19 16 -2
0 -11 -7 -19 -16 -11 -10 -16 -34 -16 -70 l0 -55 -72 3 -73 3 -3 62 c-3 64
-14 79 -45 61z"/>
<path d="M1157 1674 c-13 -13 -8 -309 5 -322 19 -19 182 -16 199 4 25 30 -1
49 -75 52 l-66 3 0 39 0 39 63 3 c59 3 62 4 62 28 0 24 -3 25 -62 28 l-63 3 0
34 0 34 73 3 c69 3 72 4 72 28 0 25 -1 25 -101 28 -55 1 -103 0 -107 -4z"/>
<path d="M1529 1657 c-55 -37 -69 -76 -69 -198 0 -111 9 -136 44 -123 11 4 16
19 16 50 l0 44 80 0 80 0 0 -38 c0 -35 14 -62 31 -62 4 0 15 7 23 16 24 24 22
195 -3 250 -36 79 -132 108 -202 61z m125 -58 c23 -18 27 -28 24 -63 l-3 -41
-69 -3 c-38 -2 -73 1 -79 7 -15 15 1 79 25 101 28 26 68 25 102 -1z"/>
<path d="M1892 1660 c-36 -22 -56 -63 -47 -95 10 -39 35 -59 102 -80 68 -22
91 -47 61 -66 -25 -17 -84 -10 -103 11 -22 25 -58 23 -63 -3 -10 -51 89 -98
164 -77 52 15 73 36 80 81 8 48 -22 83 -83 98 -74 19 -93 29 -93 49 0 42 37
52 95 25 32 -15 37 -15 51 -2 20 21 9 45 -29 64 -42 21 -96 19 -135 -5z"/>
<path d="M2556 1665 c-3 -9 -6 -81 -6 -160 0 -114 3 -145 15 -155 28 -23 44
-4 47 57 l3 58 55 3 c59 3 80 14 80 43 0 20 -19 27 -90 31 -44 3 -45 4 -45 38
l0 35 75 5 c72 5 75 6 75 30 0 25 -1 25 -101 28 -86 2 -103 0 -108 -13z"/>
<path d="M3085 1661 c-56 -33 -68 -65 -73 -182 -5 -109 4 -149 33 -149 26 0
35 37 35 144 0 101 1 105 26 125 35 28 67 26 101 -3 27 -24 28 -27 30 -133 1
-59 2 -111 2 -114 2 -14 34 -19 47 -8 22 18 19 214 -4 259 -36 73 -131 102
-197 61z"/>
<path d="M3398 1674 c-5 -4 -8 -78 -8 -165 l0 -159 26 -6 c42 -11 131 3 171
26 54 30 76 65 81 125 5 67 -16 114 -70 152 -35 23 -53 29 -117 31 -42 2 -79
0 -83 -4z m146 -68 c60 -25 81 -81 54 -141 -15 -34 -56 -55 -108 -55 l-40 0 0
105 0 105 30 0 c17 0 46 -6 64 -14z"/>
<path d="M4270 1661 c-11 -21 -14 -250 -4 -288 7 -26 32 -37 50 -22 7 6 14 32
16 57 3 43 6 47 30 50 23 3 32 -5 65 -55 40 -60 58 -70 77 -41 8 13 5 26 -13
58 l-23 41 31 35 c48 55 39 127 -21 164 -48 29 -192 29 -208 1z m182 -58 c45
-40 10 -83 -68 -83 l-54 0 0 50 0 50 52 0 c34 0 58 -6 70 -17z"/>
<path d="M392 1088 c0 -46 3 -68 5 -50 5 42 34 43 65 2 29 -39 44 -39 21 1
-17 29 -17 31 0 40 20 11 23 59 5 77 -7 7 -31 12 -55 12 l-43 0 2 -82z m78 54
c32 -26 17 -52 -31 -52 -36 0 -39 2 -39 28 0 16 3 32 7 35 12 12 40 7 63 -11z"/>
<path d="M650 1091 c0 -78 0 -79 28 -83 15 -2 38 -1 52 3 20 6 16 7 -17 8 -41
1 -43 3 -43 31 0 27 3 30 29 30 17 0 33 5 36 10 4 6 -8 10 -30 10 -34 0 -36 2
-33 28 3 23 9 28 43 33 39 6 39 6 -12 8 l-53 1 0 -79z"/>
<path d="M926 1148 c-60 -51 -20 -142 58 -136 22 2 41 8 43 15 3 9 -3 9 -25 1
-25 -10 -35 -9 -56 5 -69 46 -18 146 60 117 20 -8 25 -7 22 2 -8 24 -73 21
-102 -4z"/>
<path d="M1188 1165 c-6 -7 -1 -146 7 -153 3 -3 5 9 5 26 0 27 4 32 23 32 15
0 29 -11 40 -30 10 -16 23 -30 28 -30 6 0 2 14 -8 31 -17 29 -17 31 0 40 20
11 23 59 5 77 -12 12 -90 17 -100 7z m76 -18 c31 -22 16 -52 -27 -55 -35 -3
-37 -2 -37 26 0 16 3 32 7 35 10 11 38 8 57 -6z"/>
<path d="M1450 1114 c0 -79 18 -106 68 -102 27 2 40 9 49 28 15 30 17 130 3
130 -6 0 -10 -28 -10 -65 0 -61 -2 -66 -26 -77 -42 -19 -58 -1 -62 68 -4 81
-22 95 -22 18z"/>
<path d="M1733 1090 c0 -47 2 -66 4 -42 2 23 2 61 0 85 -2 23 -4 4 -4 -43z"/>
<path d="M1915 1161 c30 -6 30 -7 27 -65 -5 -90 12 -104 18 -16 5 69 7 75 30
81 16 4 1 7 -40 7 -45 0 -56 -2 -35 -7z"/>
<path d="M2160 1090 c0 -47 4 -80 10 -80 6 0 10 33 10 80 0 47 -4 80 -10 80
-6 0 -10 -33 -10 -80z"/>
<path d="M2347 1152 c-13 -14 -17 -35 -15 -83 l1 -64 6 63 c4 47 11 67 25 78
11 8 23 14 26 14 3 0 15 -6 26 -14 14 -11 21 -31 25 -78 l6 -63 1 66 c2 52 -2
69 -16 82 -24 22 -65 21 -85 -1z"/>
<path d="M2639 1157 c-44 -34 -47 -103 -6 -132 26 -18 88 -20 105 -3 7 7 12
25 12 40 0 25 -3 28 -32 27 -24 -1 -27 -3 -10 -6 32 -6 31 -50 -2 -59 -24 -6
-65 10 -78 30 -14 20 -8 63 11 80 21 19 45 23 80 12 17 -6 22 -5 19 5 -6 18
-78 23 -99 6z"/>
<path d="M3080 1150 c-13 -24 -13 -140 0 -140 6 0 10 28 10 63 0 70 12 92 42
76 15 -8 18 -22 18 -74 0 -86 18 -84 22 3 3 64 4 67 28 67 24 0 25 -3 28 -67
4 -84 22 -90 22 -7 0 90 -6 97 -90 97 -58 0 -72 -3 -80 -18z"/>
<path d="M3412 1150 c-18 -17 -22 -32 -22 -80 0 -33 4 -60 10 -60 6 0 10 11
10 25 0 23 4 25 45 25 41 0 45 -2 45 -25 0 -14 5 -25 10 -25 6 0 10 28 10 63
0 49 -4 68 -18 80 -25 23 -64 21 -90 -3z m86 -39 c3 -31 3 -31 -42 -31 -39 0
-46 3 -46 20 0 11 9 29 20 40 28 28 64 13 68 -29z"/>
<path d="M3670 1090 c0 -86 -1 -85 60 -80 101 8 82 160 -21 160 l-39 0 0 -80z
m93 38 c9 -11 17 -31 17 -44 0 -29 -36 -64 -67 -64 -22 0 -23 4 -23 63 0 35 3
67 7 70 10 11 46 -3 66 -25z"/>
<path d="M3950 1091 c0 -88 2 -90 65 -80 l40 6 -47 2 c-46 1 -48 2 -48 31 0
28 3 30 34 30 19 0 38 5 41 10 4 6 -10 10 -35 10 -39 0 -41 1 -38 28 3 24 8
28 48 33 l45 6 -52 1 -53 2 0 -79z"/>
<path d="M4370 1090 l0 -80 53 2 c50 1 50 2 10 5 -40 4 -43 6 -43 34 0 25 4
29 29 29 17 0 33 5 36 10 4 6 -8 10 -29 10 -33 0 -36 2 -36 29 0 28 3 30 43
34 40 3 40 4 -10 5 l-53 2 0 -80z"/>
<path d="M4636 1148 c-18 -25 -22 -138 -6 -138 6 0 10 11 10 25 0 23 4 25 45
25 41 0 45 -2 45 -25 0 -14 5 -25 10 -25 6 0 10 26 10 58 0 73 -18 102 -65
102 -24 0 -39 -7 -49 -22z m94 -40 c0 -27 -2 -28 -45 -28 -40 0 -45 2 -45 23
0 42 29 61 68 44 15 -7 22 -19 22 -39z"/>
<path d="M4921 1156 c-24 -29 -9 -57 39 -75 51 -19 58 -41 18 -55 -22 -8 -32
-6 -48 9 -23 21 -39 13 -20 -10 18 -22 89 -16 104 8 15 24 -2 49 -41 59 -17 4
-37 15 -44 24 -11 14 -10 18 6 30 11 8 26 12 35 8 8 -3 21 -8 29 -12 9 -3 12
0 9 9 -6 20 -72 24 -87 5z"/>
<path d="M5170 1135 c0 -27 7 -39 30 -57 19 -13 31 -32 31 -47 l2 -26 4 24 c3
14 18 37 34 52 20 19 29 37 29 58 0 17 -4 31 -10 31 -5 0 -10 -16 -10 -35 0
-43 -29 -63 -66 -46 -19 8 -24 18 -24 46 0 19 -4 35 -10 35 -5 0 -10 -16 -10
-35z"/>
</g>
</svg>
