<?xml version="1.0" standalone="no"?>
<!DOCTYPE svg PUBLIC "-//W3C//DTD SVG 20010904//EN"
 "http://www.w3.org/TR/2001/REC-SVG-20010904/DTD/svg10.dtd">
<svg version="1.0" xmlns="http://www.w3.org/2000/svg"
 width="750.000000pt" height="514.000000pt" viewBox="0 0 750.000000 514.000000"
 preserveAspectRatio="xMidYMid meet">

<g transform="translate(0.000000,514.000000) scale(0.100000,-0.100000)"
fill="#000000" stroke="none">
<path d="M3590 4784 c-124 -8 -358 -53 -510 -99 -134 -40 -374 -146 -441 -195
-23 -16 -46 -30 -50 -30 -14 0 -239 -154 -294 -200 -98 -84 -163 -146 -242
-236 -116 -131 -153 -180 -245 -324 -50 -78 -198 -372 -198 -392 0 -14 -8 -39
-55 -168 -19 -53 -70 -305 -85 -421 -33 -265 7 -638 100 -934 23 -71 52 -152
65 -180 13 -27 33 -74 44 -102 12 -29 31 -70 44 -90 13 -21 27 -46 30 -56 7
-18 59 -102 101 -162 11 -16 35 -52 53 -79 69 -105 306 -349 432 -446 135
-103 291 -201 401 -251 25 -12 81 -38 125 -59 44 -21 91 -41 105 -45 14 -4 61
-20 105 -36 72 -26 263 -68 446 -98 92 -15 435 -13 539 3 304 48 527 118 761
239 164 85 245 135 376 235 76 58 248 214 284 257 5 6 34 39 65 75 91 105 239
321 269 394 9 22 28 56 41 75 13 20 24 42 24 49 0 8 13 41 28 75 43 92 108
292 131 402 79 368 64 804 -40 1132 -16 51 -29 98 -29 104 0 14 -85 221 -108
264 -8 17 -27 53 -40 80 -13 28 -38 73 -56 100 -17 28 -35 58 -41 67 -84 141
-291 380 -402 466 -39 29 -140 41 -196 23 -81 -27 -130 -98 -131 -191 0 -73
19 -106 119 -210 153 -159 293 -355 371 -520 82 -176 85 -184 141 -405 31
-122 43 -235 43 -411 0 -177 -17 -320 -56 -456 -13 -48 -24 -93 -24 -100 0
-21 -106 -274 -128 -305 -10 -15 -34 -54 -51 -87 -40 -71 -111 -181 -145 -221
-34 -42 -54 -27 -87 66 -28 80 -87 201 -122 252 -72 103 -91 126 -202 237
-224 225 -631 407 -804 360 -49 -13 -114 -69 -130 -114 -16 -40 -13 -142 3
-175 21 -39 90 -99 123 -106 16 -4 80 -23 143 -42 181 -57 321 -153 442 -302
37 -46 68 -87 68 -92 0 -5 18 -38 40 -74 22 -36 44 -84 50 -108 5 -23 18 -69
28 -102 26 -80 34 -156 19 -185 -13 -25 -109 -83 -257 -155 -242 -117 -499
-174 -785 -174 -128 0 -186 5 -375 32 -95 14 -300 77 -395 122 -27 12 -75 34
-105 48 -104 48 -217 123 -347 229 -90 73 -127 116 -113 133 5 6 54 20 107 29
103 18 162 32 201 47 13 5 52 19 85 30 68 22 228 100 324 157 71 43 235 166
288 217 147 143 310 361 354 472 11 27 29 66 40 86 12 21 30 66 41 100 11 34
25 70 30 79 12 21 28 83 42 158 24 136 81 307 140 418 33 62 70 125 84 141 13
16 24 33 24 38 0 5 24 32 53 60 63 61 67 61 155 -25 152 -151 251 -336 275
-517 14 -103 15 -240 3 -337 -11 -83 6 -133 63 -195 46 -49 101 -68 177 -60
122 12 175 88 201 285 13 106 13 129 -1 242 -17 128 -64 340 -84 375 -7 11
-30 58 -52 105 -53 112 -86 169 -115 200 -14 15 -25 31 -25 37 0 13 -181 196
-236 238 -95 74 -147 108 -239 155 -55 27 -104 50 -111 50 -6 0 -38 12 -70 26
-125 56 -464 81 -667 49 -173 -28 -383 -109 -527 -203 -118 -78 -269 -223
-352 -337 -108 -149 -122 -185 -111 -282 5 -42 13 -60 50 -102 24 -28 42 -55
38 -61 -4 -6 -85 -10 -216 -10 -191 0 -215 -2 -259 -21 -78 -34 -80 -43 -80
-404 0 -259 2 -309 16 -338 33 -68 22 -67 524 -67 491 0 487 0 526 57 18 26
19 50 19 358 0 298 -2 332 -17 355 -28 39 -91 59 -190 59 -48 1 -90 5 -93 11
-3 5 8 24 24 42 17 18 54 69 82 113 107 163 309 327 465 377 178 57 184 58
303 58 147 0 155 -5 113 -64 -18 -24 -32 -50 -32 -56 0 -7 -13 -29 -30 -50
-16 -21 -30 -40 -30 -43 0 -3 -18 -37 -40 -76 -22 -38 -46 -87 -54 -108 -8
-21 -27 -69 -42 -108 -15 -38 -33 -99 -39 -135 -11 -58 -35 -151 -79 -309 -40
-139 -186 -371 -316 -501 -68 -68 -198 -169 -273 -212 -59 -34 -200 -93 -281
-118 -177 -55 -449 -79 -519 -45 -59 29 -167 302 -211 530 -19 104 -28 382
-17 565 8 130 13 160 54 295 75 245 165 426 319 635 79 108 301 321 415 398
195 132 496 268 643 290 36 6 112 19 170 30 76 15 159 21 300 24 180 3 198 5
230 25 77 47 110 105 110 191 0 52 -11 75 -59 125 -64 68 -76 71 -266 73 -93
1 -195 0 -225 -2z"/>
<path d="M4515 4679 c-147 -19 -247 -100 -309 -247 -52 -124 -49 -190 15 -311
39 -74 53 -89 126 -143 90 -66 191 -81 339 -50 47 10 150 79 179 121 11 15 28
40 38 54 24 33 46 128 46 192 0 122 -56 239 -147 308 -27 20 -55 37 -61 37 -7
0 -25 7 -40 15 -40 20 -127 32 -186 24z"/>
</g>
</svg>
