<?xml version="1.0" standalone="no"?>
<!DOCTYPE svg PUBLIC "-//W3C//DTD SVG 20010904//EN"
 "http://www.w3.org/TR/2001/REC-SVG-20010904/DTD/svg10.dtd">
<svg version="1.0" xmlns="http://www.w3.org/2000/svg"
 width="1080.000000pt" height="842.000000pt" viewBox="0 0 1080.000000 842.000000"
 preserveAspectRatio="xMidYMid meet">

<g transform="translate(0.000000,842.000000) scale(0.100000,-0.100000)"
fill="#000000" stroke="none">
<path d="M5235 6700 c-91 -12 -271 -59 -353 -91 -423 -168 -744 -505 -881
-926 -56 -172 -66 -240 -66 -463 0 -227 15 -323 77 -499 227 -644 884 -1062
1559 -991 362 38 668 188 930 457 151 154 259 332 336 553 57 161 78 291 77
475 -2 322 -95 616 -278 872 -77 107 -201 238 -239 252 -101 39 -197 -25 -197
-129 0 -53 17 -84 80 -145 106 -103 205 -253 264 -402 123 -309 112 -662 -28
-959 -40 -85 -134 -236 -155 -248 -5 -3 -21 24 -35 60 -55 145 -168 291 -298
389 -133 100 -345 177 -427 155 -57 -15 -101 -71 -101 -128 0 -85 36 -124 141
-153 118 -33 196 -76 275 -154 104 -103 165 -223 180 -353 l6 -57 -77 -45
c-100 -57 -217 -104 -330 -132 -77 -19 -116 -23 -270 -23 -165 0 -189 3 -288
28 -216 56 -389 150 -546 298 l-24 23 106 22 c347 73 644 306 796 624 34 72
61 150 85 245 48 195 84 279 160 380 39 51 53 65 63 65 19 0 127 -118 160
-175 68 -115 77 -153 78 -325 1 -174 8 -203 58 -237 62 -42 161 -23 201 39 26
41 39 143 33 256 -19 327 -201 604 -492 750 -113 57 -209 82 -345 89 -170 9
-304 -19 -450 -93 -150 -75 -296 -214 -369 -349 -32 -60 -29 -126 9 -168 16
-19 27 -37 23 -41 -3 -3 -73 -6 -154 -6 -209 0 -194 21 -194 -270 0 -232 0
-232 24 -251 22 -18 43 -19 331 -19 l309 0 20 26 c20 25 21 39 21 246 l0 219
-25 24 c-21 22 -33 25 -95 25 -64 0 -86 9 -60 25 6 4 31 37 56 75 81 123 179
198 319 245 85 29 245 46 245 27 0 -6 -20 -42 -44 -79 -63 -98 -111 -214 -141
-333 -40 -169 -54 -210 -103 -305 -37 -71 -65 -109 -137 -181 -104 -105 -184
-161 -297 -204 -112 -43 -209 -61 -314 -58 l-89 3 -36 73 c-47 95 -85 239
-100 379 -51 475 210 955 640 1177 190 98 342 136 555 137 148 1 191 15 227
72 44 71 2 181 -79 205 -43 13 -232 14 -327 2z"/>
<path d="M5860 6631 c-143 -44 -224 -198 -176 -334 45 -124 188 -198 314 -161
68 19 154 100 171 160 31 113 -4 230 -86 288 -70 49 -156 67 -223 47z"/>
<path d="M2243 3213 c-50 -10 -53 -26 -53 -330 0 -277 0 -283 22 -303 20 -18
35 -20 193 -20 195 0 215 6 215 65 0 56 -24 65 -172 65 l-128 0 0 69 c0 54 4
70 16 75 9 3 62 6 119 6 l103 0 15 32 c13 28 14 36 2 59 -18 34 -38 39 -157
39 l-98 0 0 55 0 55 124 0 c110 0 126 2 150 21 32 25 35 68 5 95 -19 17 -39
19 -178 20 -86 1 -166 0 -178 -3z"/>
<path d="M4167 3202 c-24 -26 -24 -188 0 -257 20 -59 86 -129 149 -156 l44
-20 0 -89 c0 -80 2 -90 22 -104 30 -22 60 -20 86 4 19 18 22 31 22 105 l0 84
56 28 c109 53 154 139 154 292 0 110 -11 131 -68 131 -48 0 -62 -29 -62 -128
0 -49 -6 -96 -14 -117 -41 -98 -211 -102 -261 -6 -10 20 -15 58 -15 113 0 104
-13 132 -61 136 -24 2 -40 -3 -52 -16z"/>
<path d="M4904 3206 c-17 -8 -34 -21 -38 -31 -3 -9 -6 -142 -6 -295 0 -274 0
-280 22 -300 27 -25 59 -26 87 -2 18 15 21 29 23 122 l3 105 100 2 c129 4 140
7 155 43 10 25 10 34 -4 55 -20 30 -36 34 -156 38 l-95 2 -3 68 -3 67 114 0
c131 0 174 11 183 46 10 41 -3 71 -37 83 -46 16 -306 14 -345 -3z"/>
<path d="M5466 3185 c-15 -31 -17 -70 -14 -311 l3 -276 24 -19 c31 -26 57 -24
86 6 l25 24 0 277 c0 243 -2 279 -17 305 -14 24 -24 29 -54 29 -32 0 -39 -4
-53 -35z"/>
<path d="M5973 3209 c-92 -17 -165 -76 -205 -164 -20 -45 -23 -69 -26 -238 -2
-103 -1 -198 2 -212 9 -34 47 -58 80 -49 49 12 56 44 56 259 l0 195 33 37 c30
32 41 37 90 41 69 5 110 -10 140 -52 21 -29 22 -43 25 -238 l3 -208 26 -20
c32 -25 44 -25 77 1 l27 22 -3 211 c-3 190 -5 215 -24 256 -54 114 -183 182
-301 159z"/>
<path d="M6510 3213 c-8 -3 -23 -12 -32 -21 -16 -14 -18 -41 -18 -304 0 -359
-14 -332 169 -326 112 4 133 7 188 32 73 33 144 104 175 173 32 71 29 182 -6
251 -54 107 -156 176 -284 193 -74 9 -169 10 -192 2z m266 -157 c68 -31 97
-74 102 -147 6 -77 -2 -102 -44 -148 -42 -47 -105 -71 -186 -71 l-58 0 0 195
0 195 68 0 c49 0 80 -6 118 -24z"/>
<path d="M7456 3198 c-14 -19 -16 -66 -16 -310 0 -275 1 -289 20 -308 24 -24
57 -25 85 -4 18 13 21 30 25 137 l5 122 131 3 132 3 4 -122 c4 -112 6 -123 27
-140 29 -24 53 -24 82 0 24 19 24 21 27 263 5 339 -2 378 -67 378 -51 0 -66
-30 -69 -146 l-4 -104 -134 0 -134 0 0 103 c0 121 -11 147 -65 147 -24 0 -39
-7 -49 -22z"/>
<path d="M8183 3214 c-12 -3 -28 -20 -38 -40 -14 -30 -16 -70 -13 -305 l3
-271 24 -19 c31 -26 57 -24 86 6 23 22 25 32 25 110 l0 86 57 -3 57 -3 58 -95
c79 -129 104 -145 154 -95 30 30 28 43 -27 137 -21 36 -39 70 -39 75 1 4 18
20 39 34 102 71 109 231 14 321 -48 46 -104 60 -248 63 -71 2 -140 1 -152 -1z
m315 -154 c28 -27 30 -88 3 -121 -18 -22 -28 -24 -125 -27 l-106 -4 0 86 0 86
103 0 c90 0 106 -3 125 -20z"/>
<path d="M2950 3189 c-58 -26 -105 -72 -138 -134 -27 -50 -27 -51 -27 -264 l0
-214 27 -20 c24 -18 30 -18 57 -7 35 14 40 28 43 115 l3 60 145 0 145 0 5 -78
c4 -63 9 -82 24 -93 27 -19 49 -18 80 7 l27 22 -3 211 c-3 206 -4 212 -30 261
-54 102 -138 155 -248 155 -44 0 -80 -7 -110 -21z m183 -121 c52 -27 71 -68
71 -153 l1 -50 -143 -3 c-163 -3 -159 -6 -147 85 6 48 13 63 45 95 35 35 42
38 94 38 32 0 67 -5 79 -12z"/>
<path d="M3618 3185 c-111 -59 -140 -202 -56 -282 46 -43 84 -60 187 -84 49
-11 95 -27 102 -35 20 -24 2 -64 -36 -80 -65 -27 -142 -10 -197 43 -51 49
-118 28 -118 -38 0 -41 86 -114 158 -135 114 -33 239 2 297 85 25 35 30 52 30
99 0 100 -61 150 -226 188 -93 21 -112 34 -112 75 0 43 25 59 93 59 44 0 63
-5 90 -25 41 -30 73 -32 100 -5 41 41 19 90 -60 132 -34 17 -64 24 -125 26
-69 2 -86 -1 -127 -23z"/>
<path d="M737 2233 c-4 -3 -7 -76 -7 -160 0 -142 1 -154 18 -151 13 2 18 16
22 58 5 54 6 55 37 57 35 1 60 -21 95 -86 16 -29 48 -43 48 -21 0 6 -13 31
-29 56 l-29 47 34 34 c54 53 43 128 -23 162 -23 12 -155 15 -166 4z m171 -48
c7 -6 14 -27 14 -45 2 -48 -30 -70 -98 -70 l-54 0 0 63 c0 35 2 66 5 69 10 9
120 -4 133 -17z"/>
<path d="M1247 2233 c-4 -3 -7 -75 -7 -159 0 -129 2 -153 16 -158 24 -9 157
-7 173 3 29 18 -2 31 -75 31 l-74 0 0 60 0 60 70 0 c56 0 70 3 70 15 0 12 -14
15 -70 15 l-70 0 0 50 0 50 64 0 c73 0 96 6 96 26 0 11 -20 14 -93 14 -52 0
-97 -3 -100 -7z"/>
<path d="M1795 2221 c-59 -37 -78 -67 -83 -131 -4 -52 -1 -66 22 -100 30 -46
70 -70 123 -72 47 -1 109 18 117 37 8 23 -7 25 -57 7 -42 -15 -51 -15 -88 -2
-57 20 -84 59 -84 118 0 103 74 141 208 107 38 -10 35 10 -5 35 -42 26 -113
26 -153 1z"/>
<path d="M2260 2080 c0 -136 2 -160 15 -160 11 0 15 13 15 54 l0 54 37 4 c42
5 64 -12 98 -76 11 -21 27 -36 37 -36 24 0 23 5 -12 62 -16 26 -30 51 -30 53
0 3 15 18 32 34 27 24 33 36 33 71 0 35 -6 47 -33 71 -30 27 -38 29 -112 29
l-80 0 0 -160z m172 103 c22 -19 23 -61 2 -88 -12 -16 -27 -20 -77 -20 l-62 0
-3 63 -3 62 62 0 c44 0 68 -5 81 -17z"/>
<path d="M2770 2116 c0 -119 1 -126 26 -155 49 -59 139 -59 188 0 25 29 26 36
26 155 0 100 -3 124 -14 124 -11 0 -15 -25 -18 -121 -3 -118 -4 -121 -31 -145
-39 -33 -81 -31 -118 5 -29 29 -29 31 -29 145 0 96 -3 116 -15 116 -13 0 -15
-20 -15 -124z"/>
<path d="M3295 2228 c-3 -8 -4 -79 -3 -158 3 -121 5 -145 18 -145 13 0 15 24
15 154 0 115 -3 155 -12 158 -7 3 -15 -2 -18 -9z"/>
<path d="M3610 2225 c0 -10 16 -16 50 -21 l50 -7 0 -138 c0 -113 3 -139 14
-139 18 0 30 98 24 204 l-3 75 45 3 c33 2 46 7 48 21 3 15 -7 17 -112 17 -95
0 -116 -3 -116 -15z"/>
<path d="M4125 2228 c-3 -8 -4 -79 -3 -158 3 -129 5 -145 21 -148 16 -3 17 8
15 154 -2 115 -6 158 -15 162 -7 2 -15 -3 -18 -10z"/>
<path d="M4498 2224 c-47 -25 -58 -60 -58 -189 0 -96 3 -115 15 -115 12 0 15
18 15 105 0 110 12 156 45 169 32 12 83 6 106 -13 22 -18 24 -27 27 -140 3
-96 7 -121 18 -121 21 0 20 219 -1 260 -28 55 -109 76 -167 44z"/>
<path d="M5046 2217 c-43 -24 -86 -92 -86 -136 0 -37 40 -111 71 -134 56 -40
150 -39 195 4 22 20 24 31 22 79 l-3 55 -58 3 c-52 3 -58 1 -55 -15 2 -13 14
-19 41 -21 35 -3 37 -5 37 -37 0 -28 -6 -37 -30 -50 -106 -55 -221 67 -165
175 29 55 107 73 193 45 38 -13 27 24 -13 41 -49 20 -104 17 -149 -9z"/>
<path d="M5889 2211 l-29 -29 0 -131 c0 -105 3 -131 14 -131 22 0 27 25 25
142 -1 122 5 138 57 138 47 0 54 -20 54 -158 0 -65 3 -122 7 -125 3 -4 12 -2
20 4 9 9 13 44 13 133 0 134 5 146 55 146 51 0 55 -12 55 -153 0 -117 2 -128
18 -125 15 3 17 18 20 118 3 142 -11 180 -72 195 -30 7 -44 6 -68 -8 -26 -15
-32 -15 -58 -2 -44 23 -78 19 -111 -14z"/>
<path d="M6533 2220 c-46 -27 -55 -53 -61 -156 -5 -103 1 -144 23 -144 11 0
15 13 15 50 l0 50 90 0 90 0 0 -50 c0 -38 4 -50 15 -50 22 0 22 218 0 260 -30
58 -112 77 -172 40z m126 -39 c21 -21 37 -81 27 -106 -4 -12 -24 -15 -91 -15
l-85 0 0 44 c0 64 29 96 86 96 30 0 50 -6 63 -19z"/>
<path d="M7007 2233 c-4 -3 -7 -75 -7 -159 0 -146 1 -153 21 -159 27 -9 106 3
139 20 115 60 115 225 0 286 -34 19 -139 27 -153 12z m151 -49 c47 -33 66
-111 39 -164 -19 -37 -74 -70 -118 -70 l-39 0 0 125 0 125 48 0 c27 0 57 -7
70 -16z"/>
<path d="M7534 2227 c-2 -7 -3 -80 -2 -162 l3 -150 95 0 c78 0 95 3 95 15 0
12 -17 16 -77 18 l-78 3 0 59 0 60 70 0 c56 0 70 3 70 15 0 12 -14 15 -70 15
l-70 0 0 50 c0 33 4 50 13 51 6 0 41 1 77 2 53 2 65 5 68 20 3 15 -6 17 -93
17 -69 0 -97 -4 -101 -13z"/>
<path d="M8342 2078 l3 -163 86 -3 c67 -2 89 1 99 13 16 20 4 24 -85 27 l-70
3 0 55 0 55 68 5 c37 3 67 10 67 15 0 6 -30 12 -67 15 l-68 5 -3 48 -3 47 66
0 c67 0 110 13 100 31 -4 5 -49 9 -101 9 l-94 0 2 -162z"/>
<path d="M8878 2224 c-51 -27 -62 -71 -59 -251 1 -40 5 -53 16 -53 11 0 15 12
15 50 l0 50 90 0 90 0 0 -50 c0 -38 4 -50 15 -50 22 0 22 218 0 260 -28 55
-109 76 -167 44z m122 -44 c22 -22 33 -57 28 -91 -3 -23 -6 -24 -88 -24 l-85
0 1 49 c0 38 5 53 23 67 31 26 95 25 121 -1z"/>
<path d="M9414 2230 c-30 -12 -54 -49 -54 -81 0 -44 29 -69 104 -90 86 -23
106 -48 70 -83 -36 -37 -93 -32 -144 10 -42 36 -61 19 -26 -23 26 -31 94 -56
125 -46 57 18 75 29 86 57 24 57 -1 91 -90 116 -68 19 -85 31 -85 60 0 14 5
31 12 38 17 17 90 15 114 -3 25 -19 44 -19 44 0 0 39 -101 68 -156 45z"/>
<path d="M9864 2225 c-10 -24 3 -114 20 -140 8 -12 31 -30 50 -39 35 -16 36
-19 36 -71 0 -42 4 -55 15 -55 18 0 29 39 23 80 -4 24 0 31 23 40 54 23 73 55
77 130 4 59 2 70 -12 70 -9 0 -17 -6 -17 -12 -1 -7 -3 -35 -5 -63 -4 -61 -36
-95 -88 -95 -55 0 -78 27 -85 100 -6 62 -24 89 -37 55z"/>
</g>
</svg>
